<mxfile host="Electron" agent="Mozilla/5.0 (Windows NT 10.0; Win64; x64) AppleWebKit/537.36 (KHTML, like Gecko) draw.io/24.7.8 Chrome/128.0.6613.36 Electron/32.0.1 Safari/537.36" version="24.7.8">
  <diagram name="Page-1" id="MAllqAfLBLea2LckqZOi">
    <mxGraphModel dx="1434" dy="844" grid="1" gridSize="10" guides="1" tooltips="1" connect="1" arrows="1" fold="1" page="1" pageScale="1" pageWidth="850" pageHeight="1100" math="0" shadow="0">
      <root>
        <mxCell id="0" />
        <mxCell id="1" parent="0" />
        <mxCell id="USOqtzKKuF3D1rq9zsue-1" value="&lt;b&gt;Facility 1&lt;/b&gt;" style="whiteSpace=wrap;html=1;aspect=fixed;" parent="1" vertex="1">
          <mxGeometry x="115" y="227" width="80" height="80" as="geometry" />
        </mxCell>
        <mxCell id="USOqtzKKuF3D1rq9zsue-2" value="&lt;b&gt;Facility 2&lt;/b&gt;" style="whiteSpace=wrap;html=1;aspect=fixed;" parent="1" vertex="1">
          <mxGeometry x="115" y="347" width="80" height="80" as="geometry" />
        </mxCell>
        <mxCell id="USOqtzKKuF3D1rq9zsue-3" value="&lt;b&gt;Facility n&lt;/b&gt;" style="whiteSpace=wrap;html=1;aspect=fixed;" parent="1" vertex="1">
          <mxGeometry x="115" y="507" width="80" height="80" as="geometry" />
        </mxCell>
        <mxCell id="USOqtzKKuF3D1rq9zsue-4" value="" style="endArrow=none;dashed=1;html=1;rounded=0;" parent="1" edge="1">
          <mxGeometry width="50" height="50" relative="1" as="geometry">
            <mxPoint x="155" y="497" as="sourcePoint" />
            <mxPoint x="155" y="437" as="targetPoint" />
          </mxGeometry>
        </mxCell>
        <mxCell id="USOqtzKKuF3D1rq9zsue-5" value="&lt;b&gt;Database&lt;/b&gt;" style="ellipse;whiteSpace=wrap;html=1;" parent="1" vertex="1">
          <mxGeometry x="315" y="347" width="120" height="80" as="geometry" />
        </mxCell>
        <mxCell id="USOqtzKKuF3D1rq9zsue-7" value="&lt;b&gt;&lt;font style=&quot;font-size: 12px;&quot;&gt;A&lt;/font&gt;&lt;/b&gt;" style="endArrow=classic;startArrow=classic;html=1;rounded=0;exitX=1;exitY=0.5;exitDx=0;exitDy=0;entryX=0;entryY=0;entryDx=0;entryDy=0;" parent="1" source="USOqtzKKuF3D1rq9zsue-1" target="USOqtzKKuF3D1rq9zsue-5" edge="1">
          <mxGeometry width="50" height="50" relative="1" as="geometry">
            <mxPoint x="355" y="487" as="sourcePoint" />
            <mxPoint x="405" y="437" as="targetPoint" />
          </mxGeometry>
        </mxCell>
        <mxCell id="USOqtzKKuF3D1rq9zsue-8" value="&lt;b&gt;&lt;font style=&quot;font-size: 12px;&quot;&gt;A&lt;/font&gt;&lt;/b&gt;" style="endArrow=classic;startArrow=classic;html=1;rounded=0;exitX=1;exitY=0.5;exitDx=0;exitDy=0;entryX=0;entryY=0.5;entryDx=0;entryDy=0;" parent="1" source="USOqtzKKuF3D1rq9zsue-2" target="USOqtzKKuF3D1rq9zsue-5" edge="1">
          <mxGeometry width="50" height="50" relative="1" as="geometry">
            <mxPoint x="355" y="487" as="sourcePoint" />
            <mxPoint x="405" y="437" as="targetPoint" />
          </mxGeometry>
        </mxCell>
        <mxCell id="USOqtzKKuF3D1rq9zsue-9" value="&lt;b&gt;&lt;font style=&quot;font-size: 12px;&quot;&gt;A&lt;/font&gt;&lt;/b&gt;" style="endArrow=classic;startArrow=classic;html=1;rounded=0;exitX=1;exitY=0.5;exitDx=0;exitDy=0;entryX=0;entryY=1;entryDx=0;entryDy=0;" parent="1" source="USOqtzKKuF3D1rq9zsue-3" target="USOqtzKKuF3D1rq9zsue-5" edge="1">
          <mxGeometry width="50" height="50" relative="1" as="geometry">
            <mxPoint x="355" y="487" as="sourcePoint" />
            <mxPoint x="405" y="437" as="targetPoint" />
          </mxGeometry>
        </mxCell>
        <mxCell id="USOqtzKKuF3D1rq9zsue-11" value="Database API" style="rounded=0;whiteSpace=wrap;html=1;" parent="1" vertex="1">
          <mxGeometry x="515" y="357" width="120" height="60" as="geometry" />
        </mxCell>
        <mxCell id="USOqtzKKuF3D1rq9zsue-13" value="User" style="shape=umlActor;verticalLabelPosition=bottom;verticalAlign=top;html=1;outlineConnect=0;" parent="1" vertex="1">
          <mxGeometry x="715" y="357" width="30" height="60" as="geometry" />
        </mxCell>
        <mxCell id="USOqtzKKuF3D1rq9zsue-14" value="&lt;b&gt;&lt;font style=&quot;font-size: 12px;&quot;&gt;C&lt;/font&gt;&lt;/b&gt;" style="endArrow=classic;startArrow=classic;html=1;rounded=0;entryX=0.5;entryY=0.5;entryDx=0;entryDy=0;entryPerimeter=0;exitX=1;exitY=0.5;exitDx=0;exitDy=0;" parent="1" source="USOqtzKKuF3D1rq9zsue-11" target="USOqtzKKuF3D1rq9zsue-13" edge="1">
          <mxGeometry width="50" height="50" relative="1" as="geometry">
            <mxPoint x="355" y="487" as="sourcePoint" />
            <mxPoint x="405" y="437" as="targetPoint" />
          </mxGeometry>
        </mxCell>
        <mxCell id="uZffAGViz9kjCJWsj6D6-2" value="&lt;b&gt;&lt;font style=&quot;font-size: 12px;&quot;&gt;B&lt;/font&gt;&lt;/b&gt;" style="endArrow=classic;startArrow=classic;html=1;rounded=0;exitX=1;exitY=0.5;exitDx=0;exitDy=0;entryX=0;entryY=0.5;entryDx=0;entryDy=0;" parent="1" source="USOqtzKKuF3D1rq9zsue-5" target="USOqtzKKuF3D1rq9zsue-11" edge="1">
          <mxGeometry width="50" height="50" relative="1" as="geometry">
            <mxPoint x="455" y="487" as="sourcePoint" />
            <mxPoint x="505" y="437" as="targetPoint" />
          </mxGeometry>
        </mxCell>
        <mxCell id="BFYfaFStXxI81xijr-fr-5" value="" style="rounded=0;whiteSpace=wrap;html=1;fillColor=none;dashed=1;dashPattern=1 4;" parent="1" vertex="1">
          <mxGeometry x="95" y="217" width="120" height="420" as="geometry" />
        </mxCell>
        <mxCell id="BFYfaFStXxI81xijr-fr-6" value="&lt;b&gt;&lt;font style=&quot;font-size: 14px;&quot; color=&quot;#990000&quot;&gt;Input&lt;/font&gt;&lt;/b&gt;" style="text;html=1;align=center;verticalAlign=middle;whiteSpace=wrap;rounded=0;" parent="1" vertex="1">
          <mxGeometry x="125" y="612" width="60" height="30" as="geometry" />
        </mxCell>
        <mxCell id="BFYfaFStXxI81xijr-fr-7" value="" style="rounded=0;whiteSpace=wrap;html=1;fillColor=none;dashed=1;dashPattern=1 4;" parent="1" vertex="1">
          <mxGeometry x="295" y="337" width="160" height="130" as="geometry" />
        </mxCell>
        <mxCell id="BFYfaFStXxI81xijr-fr-8" value="&lt;b&gt;&lt;font color=&quot;#990000&quot; style=&quot;font-size: 14px;&quot;&gt;Storage&lt;/font&gt;&lt;/b&gt;" style="text;html=1;align=center;verticalAlign=middle;whiteSpace=wrap;rounded=0;" parent="1" vertex="1">
          <mxGeometry x="345" y="442" width="60" height="30" as="geometry" />
        </mxCell>
        <mxCell id="BFYfaFStXxI81xijr-fr-9" value="" style="rounded=0;whiteSpace=wrap;html=1;fillColor=none;dashed=1;dashPattern=1 4;" parent="1" vertex="1">
          <mxGeometry x="495" y="337" width="260" height="130" as="geometry" />
        </mxCell>
        <mxCell id="BFYfaFStXxI81xijr-fr-10" value="&lt;b&gt;&lt;font color=&quot;#990000&quot; style=&quot;font-size: 14px;&quot;&gt;Output&lt;/font&gt;&lt;/b&gt;" style="text;html=1;align=center;verticalAlign=middle;whiteSpace=wrap;rounded=0;" parent="1" vertex="1">
          <mxGeometry x="605" y="442" width="60" height="30" as="geometry" />
        </mxCell>
      </root>
    </mxGraphModel>
  </diagram>
</mxfile>
